HIERARCHY
ROOT hips
{
  OFFSET 0 10.6860622 2.3727825e-15
  CHANNELS 6 Xposition Yposition Zposition Yrotation Xrotation Zrotation
  JOINT leftUpperLeg
  {
    OFFSET 0.6642549969 -0.9402397400000004 0
    CHANNELS 3 Yrotation Xrotation Zrotation
    JOINT leftLowerLeg
    {
      OFFSET 0 -3.997221335632195 0
      CHANNELS 3 Yrotation Xrotation Zrotation
      JOINT leftFoot
      {
        OFFSET -0.13777839790000004 -4.6145792000000005 -0.22186036399999998
        CHANNELS 3 Yrotation Xrotation Zrotation
        JOINT leftToes
        {
          OFFSET -0.03777410834999995 -0.9130806927000008 0.85230013
          CHANNELS 3 Yrotation Xrotation Zrotation
          End Site
          {
            OFFSET -0.03777410834999995 -0.9130806927000008 0.85230013
          }
        }
      }
    }
  }
  JOINT rightUpperLeg
  {
    OFFSET -0.6642778626 -0.9402397400000004 0
    CHANNELS 3 Yrotation Xrotation Zrotation
    JOINT rightLowerLeg
    {
      OFFSET 0 -3.997221452859387 0
      CHANNELS 3 Yrotation Xrotation Zrotation
      JOINT rightFoot
      {
        OFFSET 0.1377926176 -4.6145792000000005 -0.22185782299999995
        CHANNELS 3 Yrotation Xrotation Zrotation
        JOINT rightToes
        {
          OFFSET 0.037780746850000047 -0.9130806927000008 0.85230167
          CHANNELS 3 Yrotation Xrotation Zrotation
          End Site
          {
            OFFSET 0.037780746850000047 -0.9130806927000008 0.85230167
          }
        }
      }
    }
  }
  JOINT spine
  {
    OFFSET 0 0.13988381660000015 0
    CHANNELS 3 Yrotation Xrotation Zrotation
    JOINT chest
    {
      OFFSET 0 0.6191039003973773 0
      CHANNELS 3 Yrotation Xrotation Zrotation
      JOINT upperChest
      {
        OFFSET 0 0.9855186130586943 0
        CHANNELS 3 Yrotation Xrotation Zrotation
        JOINT leftShoulder
        {
          OFFSET 0.1807663869 1.5087829790000005 0
          CHANNELS 3 Yrotation Xrotation Zrotation
          JOINT leftUpperArm
          {
            OFFSET 0.5985063006419806 0 0
            CHANNELS 3 Yrotation Xrotation Zrotation
            JOINT leftLowerArm
            {
              OFFSET 2.2993332369501065 0 0
              CHANNELS 3 Yrotation Xrotation Zrotation
              JOINT leftHand
              {
                OFFSET 2.395047042602395 0 0
                CHANNELS 3 Yrotation Xrotation Zrotation
                JOINT leftIndexProximal
                {
                  OFFSET 0.5766295810000004 0.04556643899499946 0.17265095988184
                  CHANNELS 3 Yrotation Xrotation Zrotation
                  JOINT leftIndexIntermediate
                  {
                    OFFSET 0.2957229000000008 -0.019352197700001517 -0.007932640616999987
                    CHANNELS 3 Yrotation Xrotation Zrotation
                    JOINT leftIndexDistal
                    {
                      OFFSET 0.19008243099999922 -0.012484908149998475 -0.002786250786000012
                      CHANNELS 3 Yrotation Xrotation Zrotation
                      End Site
                      {
                        OFFSET 0.19008243099999922 -0.012484908149998475 -0.002786250786000012
                      }
                    }
                  }
                }
                JOINT leftMiddleProximal
                {
                  OFFSET 0.5834975091000001 0.0524350405149987 0.02204081888183999
                  CHANNELS 3 Yrotation Xrotation Zrotation
                  JOINT leftMiddleIntermediate
                  {
                    OFFSET 0.33880573540000003 -0.019871473270000717 -0.00000971183179999946
                    CHANNELS 3 Yrotation Xrotation Zrotation
                    JOINT leftMiddleDistal
                    {
                      OFFSET 0.20676022730000088 -0.012221336379999448 0.0001471936708000235
                      CHANNELS 3 Yrotation Xrotation Zrotation
                      End Site
                      {
                        OFFSET 0.20676022730000088 -0.012221336379999448 0.0001471936708000235
                      }
                    }
                  }
                }
                JOINT leftLittleProximal
                {
                  OFFSET 0.5344154683999995 -0.012880921405001189 -0.24414037221816004
                  CHANNELS 3 Yrotation Xrotation Zrotation
                  JOINT leftLittleIntermediate
                  {
                    OFFSET 0.21758961730000093 -0.011650919939999227 0.011893592810000034
                    CHANNELS 3 Yrotation Xrotation Zrotation
                    JOINT leftLittleDistal
                    {
                      OFFSET 0.1475273964999999 -0.008152365682999818 0.006001092492999946
                      CHANNELS 3 Yrotation Xrotation Zrotation
                      End Site
                      {
                        OFFSET 0.1475273964999999 -0.008152365682999818 0.006001092492999946
                      }
                    }
                  }
                }
                JOINT leftRingProximal
                {
                  OFFSET 0.5799399463000003 0.026911854694997794 -0.12150566991816003
                  CHANNELS 3 Yrotation Xrotation Zrotation
                  JOINT leftRingIntermediate
                  {
                    OFFSET 0.26167887460000006 -0.013480186499999602 0.010996293000000053
                    CHANNELS 3 Yrotation Xrotation Zrotation
                    JOINT leftRingDistal
                    {
                      OFFSET 0.17667108799999987 -0.008990287899999228 0.0055541023999999065
                      CHANNELS 3 Yrotation Xrotation Zrotation
                      End Site
                      {
                        OFFSET 0.17667108799999987 -0.008990287899999228 0.0055541023999999065
                      }
                    }
                  }
                }
                JOINT leftThumbProximal
                {
                  OFFSET 0.11018806699999972 -0.09448718900500053 0.17047963138184
                  CHANNELS 3 Yrotation Xrotation Zrotation
                  JOINT leftThumbIntermediate
                  {
                    OFFSET 0.31062601459999983 -0.08126270900000132 0.15443142000000007
                    CHANNELS 3 Yrotation Xrotation Zrotation
                    JOINT leftThumbDistal
                    {
                      OFFSET 0.21627175790000086 -0.08833193599999878 0.018771167799999988
                      CHANNELS 3 Yrotation Xrotation Zrotation
                      End Site
                      {
                        OFFSET 0.21627175790000086 -0.08833193599999878 0.018771167799999988
                      }
                    }
                  }
                }
              }
            }
          }
        }
        JOINT neck
        {
          OFFSET 0 1.5463305265074576 0
          CHANNELS 3 Yrotation Xrotation Zrotation
          JOINT head
          {
            OFFSET 0 0.8456443600000344 0
            CHANNELS 3 Yrotation Xrotation Zrotation
            JOINT leftEye
            {
              OFFSET 0.30408573140000006 0.5104519199999995 0.1276382305
              CHANNELS 3 Yrotation Xrotation Zrotation
              End Site
              {
                OFFSET 0.30408573140000006 0.5104519199999995 0.1276382305
              }
            }
            JOINT rightEye
            {
              OFFSET -0.30409491089999996 0.5104519199999995 0.1276379445
              CHANNELS 3 Yrotation Xrotation Zrotation
              End Site
              {
                OFFSET -0.30409491089999996 0.5104519199999995 0.1276379445
              }
            }
            JOINT jaw
            {
              OFFSET -3.155239131000001e-7 -0.11984121820000082 0.60178107
              CHANNELS 3 Yrotation Xrotation Zrotation
              End Site
              {
                OFFSET -3.155239131000001e-7 -0.11984121820000082 0.60178107
              }
            }
          }
        }
        JOINT rightShoulder
        {
          OFFSET -0.1807303465 1.5087829790000005 0
          CHANNELS 3 Yrotation Xrotation Zrotation
          JOINT rightUpperArm
          {
            OFFSET -0.5985063796536958 0 0
            CHANNELS 3 Yrotation Xrotation Zrotation
            JOINT rightLowerArm
            {
              OFFSET -2.2993322059002854 0 0
              CHANNELS 3 Yrotation Xrotation Zrotation
              JOINT rightHand
              {
                OFFSET -2.395045314457259 0 0
                CHANNELS 3 Yrotation Xrotation Zrotation
                JOINT rightIndexProximal
                {
                  OFFSET -0.5764487688300002 0.0441371204405987 0.17361932004999997
                  CHANNELS 3 Yrotation Xrotation Zrotation
                  JOINT rightIndexIntermediate
                  {
                    OFFSET -0.29573011380000047 -0.01934826376999843 -0.007698921482999974
                    CHANNELS 3 Yrotation Xrotation Zrotation
                    JOINT rightIndexDistal
                    {
                      OFFSET -0.19008373999999884 -0.012503266380000655 -0.0026365778999999897
                      CHANNELS 3 Yrotation Xrotation Zrotation
                      End Site
                      {
                        OFFSET -0.19008373999999884 -0.012503266380000655 -0.0026365778999999897
                      }
                    }
                  }
                }
                JOINT rightMiddleProximal
                {
                  OFFSET -0.5834852037300005 0.05211639405060153 0.02307162440000001
                  CHANNELS 3 Yrotation Xrotation Zrotation
                  JOINT rightMiddleIntermediate
                  {
                    OFFSET -0.33880114510000003 -0.019952774050000954 0.0002455003561999819
                    CHANNELS 3 Yrotation Xrotation Zrotation
                    JOINT rightMiddleDistal
                    {
                      OFFSET -0.20675694929999955 -0.012273788999999091 0.00030209124000002766
                      CHANNELS 3 Yrotation Xrotation Zrotation
                      End Site
                      {
                        OFFSET -0.20675694929999955 -0.012273788999999091 0.00030209124000002766
                      }
                    }
                  }
                }
                JOINT rightLittleProximal
                {
                  OFFSET -0.5346811737299992 -0.011214256288399227 -0.24363941305000003
                  CHANNELS 3 Yrotation Xrotation Zrotation
                  JOINT rightLittleIntermediate
                  {
                    OFFSET -0.21757715980000092 -0.011771559690000988 0.01201554387
                    CHANNELS 3 Yrotation Xrotation Zrotation
                    JOINT rightLittleDistal
                    {
                      OFFSET -0.1475201849000004 -0.00822055339600003 0.006082065407000015
                      CHANNELS 3 Yrotation Xrotation Zrotation
                      End Site
                      {
                        OFFSET -0.1475201849000004 -0.00822055339600003 0.006082065407000015
                      }
                    }
                  }
                }
                JOINT rightRingProximal
                {
                  OFFSET -0.5800810755299999 0.027657985680600072 -0.12066365025000003
                  CHANNELS 3 Yrotation Xrotation Zrotation
                  JOINT rightRingIntermediate
                  {
                    OFFSET -0.26166445029999974 -0.013623118409999302 0.011164098990000045
                    CHANNELS 3 Yrotation Xrotation Zrotation
                    JOINT rightRingDistal
                    {
                      OFFSET -0.17666387530000027 -0.009072900100000503 0.005668185599999959
                      CHANNELS 3 Yrotation Xrotation Zrotation
                      End Site
                      {
                        OFFSET -0.17666387530000027 -0.009072900100000503 0.005668185599999959
                      }
                    }
                  }
                }
                JOINT rightThumbProximal
                {
                  OFFSET -0.10997596379000074 -0.09577489355940072 0.16989765924999997
                  CHANNELS 3 Yrotation Xrotation Zrotation
                  JOINT rightThumbIntermediate
                  {
                    OFFSET -0.31036620999999986 -0.08229339117999834 0.15440884469999996
                    CHANNELS 3 Yrotation Xrotation Zrotation
                    JOINT rightThumbDistal
                    {
                      OFFSET -0.21631306399999906 -0.08825326400000111 0.018656797720000014
                      CHANNELS 3 Yrotation Xrotation Zrotation
                      End Site
                      {
                        OFFSET -0.21631306399999906 -0.08825326400000111 0.018656797720000014
                      }
                    }
                  }
                }
              }
            }
          }
        }
      }
    }
  }
}
MOTION
Frames: 8
Frame Time: 0.03333333333333333
-0.14592112041731564 -7.774885144177322 -5.605612931506367 0.02205965255842789 71.99674449604836 0.009542587553187874 43.29423646151405 -51.01259879087237 6.932441277646142 51.60020805250308 31.659603019204187 54.31104815610862 -22.182793824651892 54.369756411516256 1.903030622234341 0 0 0 -43.320040703998316 -51.02505255457833 -6.925014492085509 -51.60054451806255 31.64930431886758 -54.32610654995203 22.19710892185265 54.36311496362745 -1.9210395015583612 0 0 0 -0.06641403357405938 -8.223812828581934 -0.08042545751165632 -0.7403646960736155 38.13268922571774 -0.8141568844217175 0 0 0 25.115180163329068 -10.524407440451629 -6.896375909967641 -65.5451165690829 0.6485310784573234 3.1620342738219716 -43.28239593897002 -1.7894988890277825 18.730417811475878 3.4967680045195677 -10.676926314704636 55.58913521236814 0 0 0 0 0 0 0 0 0 0 0 0 0 0 0 0 0 0 0 0 0 0 0 0 0 0 0 0 0 0 0 0 0 0 0 0 0 0 0 0 0 0 0 0 0 0 -1.4573628470271163 0 0 -35.043887947661844 0 0 0 0 0 0 0 0 0 0 -22.32728606955763 -11.124168840984838 6.112711476302424 63.72955596887024 0.4585123445937788 -1.3106420061730337 50.70826229326584 1.253954212250926 -21.514860363307488 -11.646290918804143 -9.726098440165208 -53.452988791740395 0 0 0 0 0 0 0 0 0 0 0 0 0 0 0 0 0 0 0 0 0 0 0 0 0 0 0 0 0 0 0 0 0 0 0 0 0 0 0 0 0 0 0 0 0
-0.14592112041731564 -7.782221244325067 -5.6010176532332006 0.02205965255842789 71.99674449604836 0.009542587553187874 43.25794712587747 -50.901612622074495 7.04967662028479 51.60020805250308 31.65959900702234 54.31104489743047 -22.182793824651892 54.369756411516256 1.903030622234341 0 0 0 -43.28389136889621 -50.913928333700035 -7.042065491122064 -51.60054451806255 31.64930431886758 -54.32610492048601 22.19710892185265 54.36311496362745 -1.9210395015583612 0 0 0 -0.06644552321524402 -8.498461103436066 -0.080119120269964 -0.7449739133720633 38.58107356964526 -0.821576066660752 0 0 0 25.036815061182786 -10.642002824314842 -6.854000758817157 -65.5451165690829 0.6485310784573234 3.1620342738219716 -43.28239593897002 -1.7894988890277825 18.730417811475878 3.4967682213189386 -10.676925445889617 55.58913521236814 0 0 0 0 0 0 0 0 0 0 0 0 0 0 0 0 0 0 0 0 0 0 0 0 0 0 0 0 0 0 0 0 0 0 0 0 0 0 0 0 0 0 0 0 0 0 -2.440053330987724 0 0 -34.08489226514587 0 0 0 0 0 0 0 0 0 0 -22.276179432356887 -11.246511154468788 6.075963912956452 63.72955596887024 0.4585123445937788 -1.3106420061730337 50.70826229326584 1.253954212250926 -21.514860363307488 -11.646290918804143 -9.726098440165208 -53.452988791740395 0 0 0 0 0 0 0 0 0 0 0 0 0 0 0 0 0 0 0 0 0 0 0 0 0 0 0 0 0 0 0 0 0 0 0 0 0 0 0 0 0 0 0 0 0
-0.14592112041731564 -7.796893713012826 -5.591827365079138 0.02205965255842789 71.99674449604836 0.009542587553187874 43.186676309653905 -50.679465062565114 7.283011402111249 51.60020805250308 31.65959900702234 54.31104489743047 -22.182793824651892 54.369756411516256 1.903030622234341 0 0 0 -43.21290133815006 -50.6915175105262 -7.2750468132738115 -51.60054451806255 31.64930431886758 -54.32610492048601 22.19710892185265 54.36311496362745 -1.9210395015583612 0 0 0 -0.06651340327668953 -9.047984122409401 -0.07950428322546364 -0.754518558222651 39.478844582814155 -0.8367151009765036 0 0 0 24.879719482666182 -10.877050304284474 -6.768702492491496 -65.5451165690829 0.6485310784573234 3.1620342738219716 -43.28239593897002 -1.7894988890277825 18.730417811475878 3.4967682213189386 -10.676925445889617 55.58913521236814 0 0 0 0 0 0 0 0 0 0 0 0 0 0 0 0 0 0 0 0 0 0 0 0 0 0 0 0 0 0 0 0 0 0 0 0 0 0 0 0 0 0 0 0 0 0 -4.41619248137648 0 0 -32.15692611773278 0 0 0 0 0 0 0 0 0 0 -22.173644969481384 -11.49111794937888 6.002077868605011 63.72955596887024 0.4585123445937788 -1.3106420061730337 50.70826229326584 1.253954212250926 -21.514860363307488 -11.646290918804143 -9.726098440165208 -53.452988791740395 0 0 0 0 0 0 0 0 0 0 0 0 0 0 0 0 0 0 0 0 0 0 0 0 0 0 0 0 0 0 0 0 0 0 0 0 0 0 0 0 0 0 0 0 0
-0.14592112041731564 -7.804229678964436 -5.5872318184136995 0.02205965255842789 71.99674449604836 0.009542587553187874 43.1517026746456 -50.56831979999897 7.399117689204574 51.60020805250308 31.65959900702234 54.31104489743047 -22.182793824651892 54.369756411516256 1.903030622234341 0 0 0 -43.178066874254135 -50.58023084363229 -7.390965899174586 -51.60054451806255 31.64930431886758 -54.32610492048601 22.19710892185265 54.36311496362745 -1.9210395015583612 0 0 0 -0.06654977189646623 -9.322847633089562 -0.07919627135124539 -0.7594577795739165 39.928175273716015 -0.844439154320793 0 0 0 24.800980313386148 -10.994498059877712 -6.725777005257536 -65.5451165690829 0.6485310784573234 3.1620342738219716 -43.28239593897002 -1.7894988890277825 18.730417811475878 3.4967682213189386 -10.676925445889617 55.58913521236814 0 0 0 0 0 0 0 0 0 0 0 0 0 0 0 0 0 0 0 0 0 0 0 0 0 0 0 0 0 0 0 0 0 0 0 0 0 0 0 0 0 0 0 0 0 0 -5.409091698716701 0 0 -31.188458087972887 0 0 0 0 0 0 0 0 0 0 -22.122221862539465 -11.613386965923008 5.964941000345867 63.72955596887024 0.4585123445937788 -1.3106420061730337 50.70826229326584 1.253954212250926 -21.514860363307488 -11.646290918804143 -9.726098440165208 -53.452988791740395 0 0 0 0 0 0 0 0 0 0 0 0 0 0 0 0 0 0 0 0 0 0 0 0 0 0 0 0 0 0 0 0 0 0 0 0 0 0 0 0 0 0 0 0 0
-0.14592112041731564 -7.811565644916045 -5.582636271748261 0.02205965255842789 71.99674449604836 0.009542587553187874 43.117164806926624 -50.45712498810014 7.514842910926853 51.60020805250308 31.65959900702234 54.31104489743047 -22.182793824651892 54.369756411516256 1.903030622234341 0 0 0 -43.14366794381084 -50.468906056966176 -7.506506573431718 -51.60054451806255 31.64930431886758 -54.32610492048601 22.19710892185265 54.36311496362745 -1.9210395015583612 0 0 0 -0.06658766295641917 -9.597711311225664 -0.07888782757918246 -0.7645092711598053 40.37750260552377 -0.8522652176342527 0 0 0 24.722118164339783 -11.111887326962488 -6.682669579492463 -65.5451165690829 0.6485310784573234 3.1620342738219716 -43.28239593897002 -1.7894988890277825 18.730417811475878 3.4967682213189386 -10.676925445889617 55.58913521236814 0 0 0 0 0 0 0 0 0 0 0 0 0 0 0 0 0 0 0 0 0 0 0 0 0 0 0 0 0 0 0 0 0 0 0 0 0 0 0 0 0 0 0 0 0 0 -6.401991538019262 0 0 -30.21999098444376 0 0 0 0 0 0 0 0 0 0 -22.070697354442345 -11.735622429007924 5.927675871053634 63.72955596887024 0.4585123445937788 -1.3106420061730337 50.70826229326584 1.253954212250926 -21.514860363307488 -11.646290918804143 -9.726098440165208 -53.452988791740395 0 0 0 0 0 0 0 0 0 0 0 0 0 0 0 0 0 0 0 0 0 0 0 0 0 0 0 0 0 0 0 0 0 0 0 0 0 0 0 0 0 0 0 0 0
-0.14592112041731564 -7.826238113603805 -5.573445983594198 0.02205965255842789 71.99674449604836 0.009542587553187874 43.049395134063175 -50.23459178026922 7.745170467409142 51.60021119683288 31.659607031386212 54.31104978544779 -22.182793824651892 54.369756411516256 1.903030622234341 0 0 0 -43.076141966606684 -50.24608278049187 -7.736495155050849 -51.60054451806255 31.64930431886758 -54.32610492048601 22.19710892185265 54.36311496362745 -1.9210395015583612 0 0 0 -0.06666732739511287 -10.147614571497739 -0.07826975209793469 -0.7749712521016404 41.27692714110424 -0.8682500416278848 0 0 0 24.564023105014662 -11.346512984873488 -6.595901562988477 -65.5451165690829 0.6485310784573234 3.1620342738219716 -43.28239593897002 -1.7894988890277825 18.730417811475878 3.4967682213189386 -10.676925445889617 55.58913521236814 0 0 0 0 0 0 0 0 0 0 0 0 0 0 0 0 0 0 0 0 0 0 0 0 0 0 0 0 0 0 0 0 0 0 0 0 0 0 0 0 0 0 0 0 0 0 -8.396317376790279 0 0 -28.275164625767857 0 0 0 0 0 0 0 0 0 0 -21.967318947856004 -11.980013072273616 5.852750862115282 63.72955596887024 0.4585123445937788 -1.3106420061730337 50.70826229326584 1.253954212250926 -21.514860363307488 -11.646290918804143 -9.726098440165208 -53.452988791740395 0 0 0 0 0 0 0 0 0 0 0 0 0 0 0 0 0 0 0 0 0 0 0 0 0 0 0 0 0 0 0 0 0 0 0 0 0 0 0 0 0 0 0 0 0
-0.14592112041731564 -7.83357421375155 -5.568850705321031 0.02205965255842789 71.99674449604836 0.009542587553187874 43.0161286320978 -50.123242565475024 7.859800491932532 51.60020805250308 31.659603019204187 54.31104815610862 -22.182793824651892 54.369756411516256 1.903030622234341 0 0 0 -43.04302453663782 -50.134610903015044 -7.850940655388608 -51.60054451806255 31.64930431886758 -54.32610492048601 22.19710892185265 54.36311496362745 -1.9210395015583612 0 0 0 -0.06670961469022017 -10.42264195833418 -0.07796006103747387 -0.7803863504340784 41.72697213670783 -0.8764141701794101 0 0 0 24.48478293934993 -11.463746751113291 -6.55223939711508 -65.5451165690829 0.6485310784573234 3.1620342738219716 -43.28239593897002 -1.7894988890277825 18.730417811475878 3.4967682213189386 -10.676925445889617 55.58913521236814 0 0 0 0 0 0 0 0 0 0 0 0 0 0 0 0 0 0 0 0 0 0 0 0 0 0 0 0 0 0 0 0 0 0 0 0 0 0 0 0 0 0 0 0 0 0 -9.397167760655682 0 0 -27.299328818339042 0 0 0 0 0 0 0 0 0 0 -21.915467837351155 -12.102164054015544 5.81509082393691 63.72955596887024 0.4585123445937788 -1.3106420061730337 50.70826229326584 1.253954212250926 -21.514860363307488 -11.646290918804143 -9.726098440165208 -53.452988791740395 0 0 0 0 0 0 0 0 0 0 0 0 0 0 0 0 0 0 0 0 0 0 0 0 0 0 0 0 0 0 0 0 0 0 0 0 0 0 0 0 0 0 0 0 0
-0.14592112041731564 -7.840910313899295 -5.564255427047864 0.02205965255842789 71.99674449604836 0.009542587553187874 42.9832847391395 -50.01184885884386 7.97406498896861 51.60020490817356 31.65959900702234 54.31104489743047 -22.182793824651892 54.369756411516256 1.903030622234341 0 0 0 -43.01033121814384 -50.02309513602364 -7.965019863205635 -51.60054451806255 31.64930431886758 -54.32610492048601 22.19710892185265 54.36311496362745 -1.9210395015583612 0 0 0 -0.06675345331557597 -10.697669112789608 -0.07764987982014081 -0.7859262424312496 42.17701688713613 -0.8846934726366515 0 0 0 24.40541795481864 -11.580921114486232 -6.5083939379278135 -65.5451165690829 0.6485310784573234 3.1620342738219716 -43.28239593897002 -1.7894988890277825 18.730417811475878 3.4967680045195677 -10.676926314704636 55.58913521236814 0 0 0 0 0 0 0 0 0 0 0 0 0 0 0 0 0 0 0 0 0 0 0 0 0 0 0 0 0 0 0 0 0 0 0 0 0 0 0 0 0 0 0 0 0 0 -10.398018485645943 0 0 -26.32349480952102 0 0 0 0 0 0 0 0 0 0 -21.863510528009222 -12.224282668817512 5.777299840215111 63.72955596887024 0.4585123445937788 -1.3106420061730337 50.70826229326584 1.253954212250926 -21.514860363307488 -11.646290918804143 -9.726098440165208 -53.452988791740395 0 0 0 0 0 0 0 0 0 0 0 0 0 0 0 0 0 0 0 0 0 0 0 0 0 0 0 0 0 0 0 0 0 0 0 0 0 0 0 0 0 0 0 0 0
